<svg xmlns="http://www.w3.org/2000/svg" width="1024" height="1024"><!-- version: lgarron / 2025-03-09 / 0.1.2 --><defs><g id="jay"><path d="M380.719 632.342s-14.312 55.95-50.326 55.43c-12.137-.176-29.023-10.857-47.116-26.786-34.169 82.675-98.518 239.09-108.447 268.653-8.883 26.45 13.02 51.972 38.164 55.91 36.407 5.702 48.994-18.049 48.994-18.049s13.59 40.656 37.649 39.71c29.856-1.172 34.552-33.007 34.552-33.007s11.46 23.788 26.819 23.21c38.428-1.45 41.673-102.914 43.836-135.638 3.799-57.474 6.272-135.34 7.736-190.076-8.889 6.713-16.464 10.66-21.287 9.873-16.142-2.63-10.574-49.23-10.574-49.23z" style="fill:#42acde"/><path d="M403.713 75.104c-89.665-.291-201.538 32.586-200.59 99.574 1.237 87.401 52.222 62.454 41.207 111.224-4.888 21.643-59.927 49.826-65.504 153.846 2.745.609 5.225 1.042 7.156 1.14 14.223.73 29.905-26.255 29.905-26.255s9.48 37.926 35.008 37.926c25.527 0 50.689-26.256 50.689-26.256s15.102 30.308 39.605 32.09c20.06 1.458 34.059-8.022 34.059-8.022s.728 14.952 14.586 13.858c13.858-1.094 37.562-27.715 37.562-27.715 16.504 30.326 31.876 20.993 54.702 5.105 0 0 6.2 26.62 36.832 23.703 6.056-.576 12.302-1.075 18.465-1.56.432-3.89.734-7.752.86-11.569 1.954-58.776-20.306-129.84-50.323-183.064-21.76-38.583-52.53-83.324-49.596-107.215 3.472-28.28 46.678-28.443 46.678-28.443l-48.5-16.047 24.068-36.832c-16.667-3.588-36.177-5.421-56.87-5.488Z" style="fill:#2f9fdf"/><path d="M215.887 414.633s-15.682 26.985-29.905 26.256c-1.931-.1-4.41-.532-7.156-1.141-.055 1.02-.18 1.93-.224 2.965-2.26 51.899 7.707 100.302 29.74 132.062 35.089 50.581 92.545 112.57 122.05 112.996 36.015.52 50.327-55.43 50.327-55.43s-5.568 46.6 10.574 49.231c16.079 2.62 62.412-46.688 87.887-79.498 15.859-20.426 51.99-82.308 58.215-138.312-6.163.485-12.41.983-18.465 1.56-30.633 2.918-36.832-23.703-36.832-23.703-22.826 15.888-38.198 25.221-54.702-5.105 0 0-23.704 26.62-37.562 27.715-13.858 1.094-14.586-13.858-14.586-13.858s-13.999 9.48-34.059 8.022c-24.504-1.782-39.605-32.09-39.605-32.09s-25.162 26.256-50.69 26.256c-25.527 0-35.007-37.926-35.007-37.926z" style="fill:#0e254f"/><path d="M309.527 418.504a1.531 1.531 0 0 0-.738.037c-.607.191-1.089.802-1.474 1.807-.492 4.661 1.297 10.714 3.996 16.588 5.518 10.58 12.365 22.025 23.326 27.59 3.901 1.98 8.422 3.48 12.433 3.273 4.116-.213 9.267-.678 12.51-2.264 4.013-1.962 7.606-3.88 10.79-6.23 6.024-4.448 7.618-6.498 7.665-9.823.047-3.306-2.745-3.488-7.666-.498-4.908 2.982-14.528 6.127-18.74 6.127-11.19 0-21.184-7.952-33.14-26.37-4.307-6.635-7.108-9.907-8.962-10.237zm173.93 4.947c-1.11-.19-2.355.405-3.736 1.787-2.273 2.275-2.674 3.905-2.616 10.65.488 9.07 4.762 19.211 11.784 24.657 4.444 3.299 13.173 6.02 20.375 5.726 6.787-1.106 18.85-6.605 15.341-10.31-1.968-1.584-5.003.698-9.878.698-10.661 0-15.337-3.357-19.637-8.995-3.748-4.914-5.365-8.655-7.23-16.72-1.082-4.677-2.553-7.175-4.403-7.493zm-67.436 2.207a.945.945 0 0 0-.43.035c-.37.116-.73.444-1.234.862-2.369 1.966-2.415 5.18-.181 12.601 4.562 10.319 15.517 19.698 25.365 22.032 7.553 1.667 14.437.65 20.246-2.663 3.784-2.4 5.358-5.004 4.453-7.36-4.826-2.835-7.75-.92-13.353-.987-11.517-1.078-20.79-7.65-26.751-15.086-4.803-5.889-7.062-9.276-8.114-9.434zm-198.93.88c-1.047.293-1.486 2.71-1.165 7.144.383 5.29 1.364 8.256 3.994 12.06 3.1 4.486 11.539 11.035 14.775 11.61 2.512 1.043 6.903 2.385 10.703 2.324 3.798-.05 8.023-.557 11.153-1.244l.04-.002-.015-.004c3.272-.738 6.84-1.94 10.363-3.953.434-.248.805-.482 1.215-.725 3.956-2.19 7.987-5.18 10.912-7.936v-.021c.543-.455.826-.65 1.445-1.184 6.288-5.412 9.854-10.684 9.854-14.562 0-2.407-5.22-.594-14.037 4.875-15.892 9.856-31.061 13.233-40.815 9.088-.643-.274-1.427-.832-2.164-1.29L224.48 435c-1.433-1.622-2.73-3.253-3.62-4.76-1.336-2.262-2.446-3.483-3.28-3.699a.926.926 0 0 0-.487-.004z" style="fill:#71beea"/><path d="M221.57 468.813c-.457.015-.799.13-1.066.373-.284.257-.514.662-.649 1.24-.268 1.155-.109 2.957.625 5.088 3.886 11.277 16.46 24.136 28.274 28.867 4.16 1.666 10.294 2.362 16.443 2.098 6.15-.265 12.33-1.489 16.602-3.526 3.283-1.566 7.11-4.242 10.08-6.838 1.485-1.298 2.759-2.578 3.642-3.672.884-1.093 1.319-2.056 1.319-2.377 0-.576-.117-.84-.354-1.029-.236-.19-.732-.347-1.611-.326-1.757.043-4.864.784-9.648 2.27-6.179 1.917-12.74 3.026-18.56 3.13-7.814.14-10.126-.365-16.892-3.69-4.525-2.222-12.046-7.681-17.754-12.84-2.719-2.459-5.294-4.693-7.244-6.308a62.997 62.997 0 0 0-2.39-1.904c-.298-.221-.541-.39-.707-.494-.051-.032-.076-.044-.11-.063zm214.867 13.539c-.218.135-.574.771-.724 1.837-.15 1.067-.144 2.495.02 4.073.325 3.156 1.27 6.926 2.656 9.834 8.798 18.46 31.076 27.2 49.12 19.314 5.228-2.285 9.95-6.362 12.939-10.555 1.494-2.096 2.553-4.221 3.043-6.134.49-1.914.41-3.588-.282-4.881-.452-.845-.89-1.41-1.27-1.701-.38-.291-.658-.356-1.083-.256-.85.199-2.288 1.417-4.22 3.84-4.95 6.202-12.861 9.44-22.68 9.382-6.149-.035-10.93-1.1-15.989-4.359-5.06-3.259-10.4-8.664-17.906-17.385-.88-1.021-1.807-1.874-2.553-2.4-.373-.263-.702-.444-.922-.523-.219-.08-.27-.012-.148-.086zm-33.685 4.214c.112 0-.215.055-.584.221s-.854.418-1.41.73a53.459 53.459 0 0 0-3.899 2.456c-8.046 5.536-15.65 8.356-23.94 8.388-8.288.032-17.22-2.704-27.995-8.144-3.03-1.53-5.504-2.54-7.367-3.049-1.864-.509-3.092-.445-3.561-.164-.235.14-.342.292-.398.613-.057.322-.014.82.189 1.467.408 1.295 1.437 3.153 3.12 5.473 3.967 5.47 10.505 10.155 19.685 14.023 9.304 3.92 23.835 3.473 32.445-.976 3.185-1.646 7.374-4.638 9.11-6.467 2.526-2.663 4.48-6.513 5.302-9.621.411-1.555.53-2.93.361-3.801-.084-.436-.232-.731-.394-.899-.162-.167-.334-.25-.664-.25zm-132.428 30.807c-.303.028-.427.105-.502.19-.075.084-.144.236-.144.556 0 .457.42 1.651 1.238 3.094.817 1.443 1.996 3.192 3.4 5.055 2.81 3.725 6.526 7.917 10.084 11.177 16.989 15.567 34.635 20.64 49.034 14.338 6.84-2.994 12.734-8.641 16.134-15.465 1.561-3.132 2.49-5.708 2.86-7.609.37-1.901.121-3.055-.274-3.455-.197-.2-.438-.3-.87-.283-.433.016-1.037.183-1.768.552-1.463.739-3.418 2.26-5.725 4.627-7.727 7.933-14.597 11.857-22.961 11.39-8.364-.469-18.078-5.233-31.77-14.32-5.201-3.451-9.358-5.987-12.498-7.62-3.14-1.634-5.328-2.31-6.238-2.227zm109.367.008c-.218 0-.332.05-.466.182-.135.13-.278.372-.381.738-.208.732-.24 1.917-.05 3.342.382 2.85 1.613 6.672 3.536 10.281 10.91 20.47 29.322 30.482 46.744 25.643 5.393-1.498 11.205-5.425 15.623-10.012 4.418-4.587 7.402-9.852 7.402-13.764 0-1.323-.146-2.265-.369-2.728-.111-.232-.218-.337-.33-.397-.111-.06-.261-.093-.527-.056-.532.073-1.452.493-2.676 1.324-1.224.831-2.765 2.054-4.66 3.672-9.042 7.718-16.91 11.2-25.14 9.97-8.231-1.23-16.663-7.089-27.048-17.68-2.877-2.934-5.675-5.604-7.855-7.53-1.09-.964-2.028-1.742-2.73-2.268a9.763 9.763 0 0 0-.856-.586c-.21-.123-.395-.13-.217-.13zm-140.22 43.49c-1.042-.06-1.535.184-1.768.54-.233.355-.294 1.057.066 2.138.72 2.162 3.042 5.55 7.027 9.6 7.541 7.66 16.642 13.585 27.44 17.855 9.653 3.818 16.7 4.122 23.34 1.108 5.572-2.531 8.375-6.124 8.375-10.45 0-.891-.16-1.537-.397-1.943-.236-.406-.515-.602-.955-.688-.88-.171-2.521.331-4.611 1.795-2.709 1.898-6.38 2.272-11.33 1.147-4.951-1.125-11.249-3.739-19.428-7.942-7.967-4.094-17.573-9.018-21.344-10.941-2.846-1.451-5.027-2.14-6.416-2.219zm160.144 2.782c-.638-.07-1.731.246-3.142 1.103-1.412.857-3.139 2.22-5.135 4.088-3.259 3.048-8.901 6.895-12.735 8.674-5.854 2.716-8.63 3.209-18.306 3.232-12.642.03-17.206-1.68-29.887-11.217-3.285-2.47-5.441-3.715-6.396-3.851-.478-.068-.543-.021-.705.254-.163.275-.3.926-.3 1.885 0 2.329 1.451 5.787 3.829 9.253 2.377 3.467 5.654 6.97 9.178 9.575 8.093 5.985 14.31 7.735 26.156 7.343 9.332-.308 11.59-.814 18.312-4.123 4.577-2.253 9.373-5.924 13.139-9.771 3.766-3.847 6.483-7.918 7.006-10.703.378-2.018.406-3.529.178-4.453-.115-.463-.286-.77-.475-.961-.189-.192-.398-.294-.717-.328zm-1.955 21.474c-.513-.06-.616.003-.82.397-.205.393-.348 1.215-.348 2.386 0 3.14 1.701 7.264 4.387 11.084 2.685 3.82 6.338 7.349 10.098 9.432 7.55 4.184 12.777 5.07 21.173 4.732 11.115-.834 17.897-3.371 23.828-12.603 1.559-2.483 2.052-4.797 1.457-6.67-.207-.653-.484-1.084-.8-1.346-.316-.262-.68-.388-1.2-.38-1.039.015-2.669.698-4.738 2.171-5.948 4.236-11.972 6.102-19.865 6.162-8.83.068-16.294-3.082-26.229-10.992-3.567-2.84-5.917-4.251-6.943-4.373zm-107.732 20.375c-.668.256-.899.468-1.053 1.053-.154.585-.123 1.624.139 3.238 1.77 10.912 13.056 24.962 24.398 30.242 8.486 3.951 20.056 3.97 28.475.051 7.695-3.582 15.952-11.216 18.959-17.428 1.28-2.644 2.018-4.742 2.263-6.209.123-.733.118-1.305.031-1.687-.087-.382-.22-.556-.408-.67-.374-.227-1.342-.203-2.863.52-1.522.722-3.525 2.06-5.93 4.027-10.023 8.197-18.6 12.09-27.119 11.363-8.52-.727-16.822-6.046-26.367-15.904-3.353-3.463-5.782-5.777-7.514-7.127-.866-.675-1.56-1.107-2.068-1.322-.51-.216-.789-.206-.944-.147z" style="fill:#309fdf"/><path d="M290.057 125.67a61.425 61.425 0 0 0-19.135 2.33c-19.79 5.651-33.437 15.85-36.438 52.188-3.023 36.62-17.95 45.56-20.308 46.757 14.698 26.699 37.956 24.412 30.154 58.957-2.463 10.905-17.674 23.448-32.877 46.504 34.075-26.913 56.406-47.938 99.613-100.474 0 0 39.1-47.611 25.163-76.946-8.916-18.765-27.057-28.6-46.172-29.316z" style="fill:#e9f2f1"/><path d="M288.457 120.826c-8.104-.084-16.687 1.404-25.525 5.27-22.56 9.868-25.06 20.341-29.176 36.912-1.666 6.706-1.747 16.358-1.39 24.699-5.821-15.71-16.48-31.627-16.48-31.627s-18.91 19.863-36.529 18.598c-22.834-1.64-33.948 1.93-44.793 9.845-25.319 18.482-21.15 43.762-21.15 43.762s17.626-1.818 40.479 1.094c20.263 2.582 37.435 4.219 61.263 2.553 8.578-.6 15.892-9.95 19.336-18.946 4.537-4.005 2.889-22.078 4.758-24.619 3-3.361 8.135-4.64 10.623-5.135 3.717-.738 4.358 1.497 4.732 2.815 3.833 13.471 15.89 22.934 29.895 22.953 15.352-.04 28.279-11.268 30.557-26.184.964-4.401 9.085-5.11 15.904-4.562 7.048.025.94 15.917-1.662 22.316-5.394 13.267-24.85 38.983-24.85 38.983l124.237-85.02s-45.781 22.06-61.461 20.145c-19.714-2.408-25.68-34.844-43.27-44.063-9.813-5.142-21.991-9.649-35.498-9.789zm1.457 9.362c15.502-.166 33.446 9.774 40.586 23.535 3.698 7.127 6.15 17.057-.297 20.205-7.584 3.703-14.661.72-15.492-2.836-3.287-14.077-15.755-24.088-30.211-24.092-16.111.04-29.636 11.375-30.818 27.443-.381 5.175-9.113 7.66-12.692 3.61-2.645-2.993 1.708-16.74 3.705-21.973 6.194-16.227 27.851-25.708 45.22-25.893zM295.5 158a5.5 5.5 0 1 1 0 11 5.5 5.5 0 0 1 0-11zm-22 29a5.5 5.5 0 1 1 0 11 5.5 5.5 0 0 1 0-11zM313.56 710.41c-2.709-1.848-15.165 23.466-20.088 59.051-6.76 48.859-8.276 63.176-14.207 95.925-5.931 32.748-12.552 66.32-13.409 73.749-.547 4.742-1.655 18.95-.516 20.113 3.204 3.27 14.698-31.717 16.761-42.032 2.063-10.314 7.736-40.742 14.183-86.9 6.446-46.157 8.51-69.622 13.15-91.54 4.642-21.919 6.694-26.614 4.127-28.365zM379.831 683.335c-4.137-1.254-10.56 24.66-13.15 37.906-5.59 28.575-6.135 63.898-8.35 86.872-2.822 29.286-6.858 58.478-12.022 87.443-2.672 14.988-8.085 29.482-9.799 44.61-1.026 9.054-5.18 25.965-.258 27.333 5.239 1.457 15.406-36.528 20.114-55.698 8.068-32.854 10.63-65.634 14.182-99.277 3.24-30.688 4.505-62.806 6.447-93.604.739-18.554 5.107-34.535 2.836-35.585z" style="fill:#0e254f"/></g></defs><rect width="1024" height="1024" ry="270" style="fill:#a7bcd9"/><use href="#jay" transform="matrix(-1 0 0 1 1024 0)"/><use href="#jay"/></svg>
